<svg id="Layer_1" data-name="Layer 1" xmlns="http://www.w3.org/2000/svg" viewBox="0 0 388.31 404.77"><defs><style>.cls-1{fill:#fff;}</style></defs><path class="cls-1" d="M202.24,404.74C91.06,401.78-.15,311.4,0,199.5a205.09,205.09,0,0,1,5.19-46c.66-2.56,1.64-6.38,2.32-9,1.66-6.2,4.25-13.19,6.48-19.24C44.69,47.47,122.42-4.08,206.28.25A187.49,187.49,0,0,1,322.2,47.11c34.65,30.67,57.37,73.9,63.94,119.59a221.7,221.7,0,0,1,2.16,27.19,7.08,7.08,0,0,1-14.15.58,191.94,191.94,0,0,0-10.22-49.33,181.75,181.75,0,0,0-22.85-44.31c-23.52-33.45-59.35-58.26-99.45-66.71-55-12-114.44,6.31-152.37,47.64a158.83,158.83,0,0,0-38.77,73.73C34.87,227.12,71.06,300,138.59,329.23A147.93,147.93,0,0,0,170,338.8c3.45.7,7.3,1.23,10.78,1.66a168.92,168.92,0,0,0,22.26.89,31.71,31.71,0,1,1-.75,63.39Z"/></svg>